<svg width="17" height="22" viewBox="0 0 17 22" fill="none" xmlns="http://www.w3.org/2000/svg">
<path id="finger-icon" d="M17 12.375V15.8125C17 19.082 14.4717 21.7379 11.2923 21.957C11.1605 21.9871 11.0203 22 10.88 22H6.12C4.20368 22 2.3732 21.0749 1.224 19.5246L0.408425 18.425C0.14365 18.0684 0 17.6344 0 17.1875V15.125C0 14.4985 0.281562 13.9055 0.72675 13.5145L2.00132 12.4837V14.4375C2.00132 14.8172 2.30571 15.125 2.68132 15.125C3.05685 15.125 3.36175 14.8173 3.36175 14.4762L3.4 1.71875C3.4 0.76957 4.16075 0 5.1 0C6.03925 0 6.8 0.76957 6.8 1.71875V8.78711C7.16125 8.45625 7.63725 8.25 8.16 8.25C9.1579 8.25 9.9858 8.97531 10.1622 9.93309C10.5187 9.33711 11.1605 8.9375 11.9 8.9375C12.8975 8.9375 13.7249 9.66238 13.9022 10.6193C14.212 10.4285 14.5732 10.3125 14.96 10.3125C16.0863 10.3125 17 11.2363 17 12.375Z" fill="white"/>
</svg>
